# xmcd CD database file
#
# Track frame offsets:
#	150
#	40272
#	78262
#	110922
#	142892
#	169804
#	189679
#	230187
#	245824
#	265827
#	287532
#
# Disc length: 4167 seconds
#
# Revision: 1
# Processed by: cddbd v1.5.2PL0 Copyright (c) Steve Scherf et al.
# Submitted via: CDex 1.70beta2
#
DISCID=a110450b
DTITLE=Tomasz Stanko - Suspended Night
DYEAR=1900
DGENRE=Jazz
TTITLE0=Song For Sarah
TTITLE1=Suspended Variations I
TTITLE2=Suspended Variations II
TTITLE3=Suspended Variations III
TTITLE4=Suspended Variations IV
TTITLE5=Suspended Variations V
TTITLE6=Suspended Variations VI
TTITLE7=Suspended Variations VII
TTITLE8=Suspended Variations VIII
TTITLE9=Suspended Variations IX
TTITLE10=Suspended Variations X
EXTD=
EXTT0=
EXTT1=
EXTT2=
EXTT3=
EXTT4=
EXTT5=
EXTT6=
EXTT7=
EXTT8=
EXTT9=
EXTT10=
PLAYORDER=
